<!DOCTYPE svg PUBLIC "-//W3C//DTD SVG 1.1//EN" "http://www.w3.org/Graphics/SVG/1.1/DTD/svg11.dtd">
<!-- Uploaded to: SVG Repo, www.svgrepo.com, Transformed by: SVG Repo Mixer Tools -->
<svg fill="#ffffff" width="800px" height="800px" viewBox="-2.4 -2.4 28.80 28.80" xmlns="http://www.w3.org/2000/svg" stroke="#ffffff" stroke-width="0.00024000000000000003" transform="matrix(1, 0, 0, 1, 0, 0)rotate(0)">
<g id="SVGRepo_bgCarrier" stroke-width="0" transform="translate(0,0), scale(1)">
<path transform="translate(-2.4, -2.4), scale(1.7999999999999998)" fill="#000000" d="M9.166.33a2.25 2.25 0 00-2.332 0l-5.25 3.182A2.25 2.25 0 00.5 5.436v5.128a2.25 2.25 0 001.084 1.924l5.25 3.182a2.25 2.25 0 002.332 0l5.25-3.182a2.25 2.25 0 001.084-1.924V5.436a2.25 2.25 0 00-1.084-1.924L9.166.33z" strokewidth="0"/>
</g>
<g id="SVGRepo_tracerCarrier" stroke-linecap="round" stroke-linejoin="round" stroke="#CCCCCC" stroke-width="0.144"/>
<g id="SVGRepo_iconCarrier"> <path d="M20.288 9.463a4.856 4.856 0 0 0-4.336-2.3 4.586 4.586 0 0 0-3.343 1.767c.071.116.148.226.212.347l.879 1.652.134-.254a2.71 2.71 0 0 1 2.206-1.519 2.845 2.845 0 1 1 0 5.686 2.708 2.708 0 0 1-2.205-1.518L13.131 12l-1.193-2.26a4.709 4.709 0 0 0-3.89-2.581 4.845 4.845 0 1 0 0 9.682 4.586 4.586 0 0 0 3.343-1.767c-.071-.116-.148-.226-.212-.347l-.879-1.656-.134.254a2.71 2.71 0 0 1-2.206 1.519 2.855 2.855 0 0 1-2.559-1.369 2.825 2.825 0 0 1 0-2.946 2.862 2.862 0 0 1 2.442-1.374h.121a2.708 2.708 0 0 1 2.205 1.518l.7 1.327 1.193 2.26a4.709 4.709 0 0 0 3.89 2.581h.209a4.846 4.846 0 0 0 4.127-7.378z"/> </g>
</svg>